<?xml version="1.0" encoding="utf-8"?>
<!-- Generator: Adobe Illustrator 23.0.2, SVG Export Plug-In . SVG Version: 6.00 Build 0)  -->
<svg version="1.1" id="Calque_1" xmlns="http://www.w3.org/2000/svg" xmlns:xlink="http://www.w3.org/1999/xlink" x="0px" y="0px"
	 viewBox="0 0 194 154" style="enable-background:new 0 0 194 154;" xml:space="preserve">
<style type="text/css">
	.st0{stroke:#000000;stroke-miterlimit:10;}
	.st1{fill:#FFFFFF;stroke:#FFFFFF;stroke-miterlimit:10;}
	.st2{fill:none;}
	.st3{font-family:'Arial-Black';}
	.st4{font-size:32.9651px;}
</style>
<rect x="2" y="2.15" class="st0" width="31.77" height="150"/>
<rect x="160.35" y="2.15" class="st0" width="31.77" height="150"/>
<rect x="7.37" y="-4.57" class="st1" width="18.06" height="9.14"/>
<rect x="7.37" y="9.43" class="st1" width="18.06" height="9.14"/>
<rect x="44.05" y="93.95" class="st2" width="101.67" height="31.07"/>
<rect x="34.09" y="144.17" class="st0" width="126.58" height="7.98"/>
<rect x="34.09" y="2.15" class="st0" width="126.58" height="7.98"/>
<rect x="34.09" y="46.46" class="st0" width="126.58" height="7.98"/>
<rect x="40.3" y="18.16" class="st2" width="114.63" height="44.7"/>
<text transform="matrix(1.3544 0 0 1 46.6094 41.7598)" class="st3 st4">Film</text>
<rect x="7.37" y="23.43" class="st1" width="18.06" height="9.14"/>
<rect x="7.37" y="37.43" class="st1" width="18.06" height="9.14"/>
<rect x="7.37" y="51.43" class="st1" width="18.06" height="9.14"/>
<rect x="7.37" y="65.43" class="st1" width="18.06" height="9.14"/>
<rect x="7.37" y="79.43" class="st1" width="18.06" height="9.14"/>
<rect x="7.37" y="93.43" class="st1" width="18.06" height="9.14"/>
<rect x="7.37" y="107.43" class="st1" width="18.06" height="9.14"/>
<rect x="7.37" y="121.43" class="st1" width="18.06" height="9.14"/>
<rect x="7.37" y="135.43" class="st1" width="18.06" height="9.14"/>
<rect x="7.37" y="149.43" class="st1" width="18.06" height="9.14"/>
<rect x="167.37" y="-4.57" class="st1" width="18.06" height="9.14"/>
<rect x="167.37" y="9.43" class="st1" width="18.06" height="9.14"/>
<rect x="167.37" y="23.43" class="st1" width="18.06" height="9.14"/>
<rect x="167.37" y="37.43" class="st1" width="18.06" height="9.14"/>
<rect x="167.37" y="51.43" class="st1" width="18.06" height="9.14"/>
<rect x="167.37" y="65.43" class="st1" width="18.06" height="9.14"/>
<rect x="167.37" y="79.43" class="st1" width="18.06" height="9.14"/>
<rect x="167.37" y="93.43" class="st1" width="18.06" height="9.14"/>
<rect x="167.37" y="107.43" class="st1" width="18.06" height="9.14"/>
<rect x="167.37" y="121.43" class="st1" width="18.06" height="9.14"/>
<rect x="167.37" y="135.43" class="st1" width="18.06" height="9.14"/>
<rect x="167.37" y="149.43" class="st1" width="18.06" height="9.14"/>
</svg>
